<svg width="24" height="24" viewBox="0 0 24 24" fill="none" xmlns="http://www.w3.org/2000/svg">
<path d="M23.7648 14.9757C23.6578 14.8689 23.5227 14.7946 23.3751 14.7615C23.2276 14.7284 23.0737 14.7377 22.9313 14.7885C21.0174 15.4709 18.9491 15.5962 16.9668 15.1498C14.9844 14.7035 13.1695 13.7038 11.7327 12.267C10.2959 10.8301 9.29637 9.01509 8.85013 7.03274C8.4039 5.05039 8.52932 2.98212 9.21182 1.06822C9.26253 0.92577 9.27184 0.771866 9.23865 0.624348C9.20546 0.476829 9.13114 0.341738 9.0243 0.234735C8.91747 0.127733 8.78249 0.0532019 8.63503 0.0197826C8.48756 -0.0136368 8.33364 -0.00457553 8.19112 0.0459158C6.4656 0.655247 4.8997 1.64586 3.60996 2.94404C1.29787 5.25787 -0.000618153 8.39522 2.20762e-07 11.6662C0.000618595 14.9372 1.3003 18.0741 3.61325 20.3871C5.92621 22.7 9.06307 23.9997 12.3341 24.0003C15.6051 24.0009 18.7425 22.7024 21.0563 20.3904C22.3546 19.1004 23.3452 17.5342 23.9544 15.8084C24.0047 15.6659 24.0136 15.512 23.98 15.3646C23.9465 15.2173 23.8719 15.0824 23.7648 14.9757Z" fill="#0A083B"/>
</svg>
