<svg width="25" height="24" viewBox="0 0 25 24" fill="none" xmlns="http://www.w3.org/2000/svg">
<path d="M12 3.66562C12.3883 3.66562 12.7031 3.35081 12.7031 2.9625V0.703125C12.7031 0.314812 12.3883 0 12 0C11.6117 0 11.2969 0.314812 11.2969 0.703125V2.9625C11.2969 3.35081 11.6117 3.66562 12 3.66562Z" fill="#0A083B"/>
<path d="M5.11213 6.10678C5.38673 6.38138 5.8319 6.38138 6.10649 6.10678C6.38109 5.83219 6.38109 5.38702 6.10649 5.11242L4.5089 3.51478C4.2343 3.24019 3.78913 3.24019 3.51454 3.51478C3.23995 3.78938 3.23995 4.23455 3.51454 4.50914L5.11213 6.10678Z" fill="#0A083B"/>
<path d="M5.11207 17.8935L3.51448 19.4911C3.23988 19.7657 3.23988 20.2108 3.51448 20.4854C3.78907 20.76 4.23424 20.76 4.50884 20.4854L6.10648 18.8878C6.38107 18.6132 6.38107 18.168 6.10648 17.8934C5.83188 17.6188 5.38667 17.6189 5.11207 17.8935Z" fill="#0A083B"/>
<path d="M12 20.3344C11.6117 20.3344 11.2969 20.6492 11.2969 21.0375V23.2969C11.2969 23.6852 11.6117 24 12 24C12.3883 24 12.7031 23.6852 12.7031 23.2969V21.0375C12.7031 20.6492 12.3883 20.3344 12 20.3344Z" fill="#0A083B"/>
<path d="M3.66562 12C3.66562 11.6117 3.35081 11.2969 2.9625 11.2969H0.703125C0.314812 11.2969 0 11.6117 0 12C0 12.3883 0.314812 12.7031 0.703125 12.7031H2.9625C3.35081 12.7031 3.66562 12.3883 3.66562 12Z" fill="#0A083B"/>
<path d="M11.9985 6.02502C8.70384 6.02502 6.02344 8.70543 6.02344 12C6.02344 15.2946 8.70384 17.9751 11.9985 17.9751C15.2931 17.9751 17.9735 15.2946 17.9735 12C17.9735 8.70543 15.2931 6.02502 11.9985 6.02502Z" fill="#0A083B"/>
<path d="M18.8879 6.10654L20.4856 4.5089C20.7602 4.2343 20.7602 3.78913 20.4856 3.51454C20.211 3.23995 19.7658 3.23995 19.4912 3.51454L17.8936 5.11218C17.619 5.38677 17.619 5.83195 17.8936 6.10654C18.1682 6.38113 18.6133 6.38113 18.8879 6.10654Z" fill="#0A083B"/>
<path d="M18.8878 17.8932C18.6132 17.6186 18.168 17.6186 17.8934 17.8932C17.6189 18.1678 17.6189 18.613 17.8934 18.8876L19.4911 20.4852C19.7657 20.7598 20.2109 20.7598 20.4854 20.4852C20.76 20.2106 20.76 19.7654 20.4854 19.4908L18.8878 17.8932Z" fill="#0A083B"/>
<path d="M23.2984 11.2969H21.0391C20.6507 11.2969 20.3359 11.6117 20.3359 12C20.3359 12.3883 20.6507 12.7031 21.0391 12.7031H23.2984C23.6868 12.7031 24.0016 12.3883 24.0016 12C24.0016 11.6117 23.6868 11.2969 23.2984 11.2969Z" fill="#0A083B"/>
</svg>
