<svg width="124" height="103" viewBox="0 0 124 103" fill="none" xmlns="http://www.w3.org/2000/svg">
<path fill-rule="evenodd" clip-rule="evenodd" d="M123.067 94.4606V84.5321C120.979 86.5807 118.978 88.7355 116.54 90.387C112.769 92.9389 107.602 92.6558 103.863 90.1707C101.825 91.7246 99.6936 93.152 97.481 94.4449C103.312 99.2224 110.362 100.807 116.807 98.3966C119.261 97.4765 121.109 96.1081 123.067 94.4645V94.4606ZM123.067 18.4929V8.54475C121.27 10.1608 119.351 12.0364 117.562 13.798C115.47 15.8623 113.355 17.8874 111.224 19.9006C112.859 21.7084 114.365 23.6294 115.73 25.6493C118.215 23.29 120.625 20.8757 123.067 18.4772V18.4929ZM0.460938 8.54475V18.4732C2.50562 16.4639 4.6014 14.3485 6.98817 12.7363C10.759 10.1884 15.9219 10.4675 19.6613 12.9526C21.6998 11.3996 23.831 9.97227 26.043 8.67844C18.7372 2.68595 9.52831 1.71473 1.9394 7.36905C1.43085 7.74653 0.938029 8.13974 0.460938 8.54868V8.54475ZM0.460938 84.5282V94.4606C4.60141 90.9217 8.32508 86.9425 12.3004 83.207C10.6634 81.3977 9.15755 79.474 7.79427 77.4504C5.33017 79.7861 2.88572 82.1453 0.460938 84.5282ZM27.4782 20.2309C33.0775 26.1526 38.6099 32.1608 44.1699 38.1297C45.7721 36.2141 47.1753 34.1404 48.3575 31.9406C43.5211 26.7424 38.7004 21.5206 33.8364 16.3539C31.6283 17.4919 29.5036 18.7848 27.4782 20.223V20.2309ZM52.0419 22.9833C52.1269 24.6854 51.968 26.3908 51.57 28.0478C50.5438 32.2158 48.1098 35.8451 45.4321 39.152C43.757 41.2085 41.9915 43.1667 40.1474 45.1131C41.8657 46.8274 43.584 48.5379 45.2591 50.2798C47.0442 48.4042 48.7783 46.4932 50.414 44.5311C54.0826 40.1626 57.2873 35.3576 58.6438 29.7544C59.5313 25.9935 59.585 22.084 58.8011 18.3002L58.1956 15.2057L55.0499 15.363C49.5421 15.5639 44.1719 17.1386 39.4278 19.9438C41.1343 21.7788 42.8382 23.6138 44.5395 25.4487C46.9007 24.2326 49.4416 23.4029 52.0655 22.9912L52.0419 22.9833ZM25.9368 94.4213C29.9397 91.1577 33.4078 87.1548 36.9191 83.3879C34.8997 82.0209 32.9787 80.5139 31.1704 78.8778C29.5006 80.6682 27.8229 82.4494 26.1374 84.2215C24.4191 86.0342 22.2053 88.3777 19.7202 90.041C16.1814 92.4002 10.7551 92.7934 7.15727 90.4106C5.3957 92.1485 3.6184 93.8865 1.7428 95.4869C5.01035 97.9562 8.52564 99.419 12.6189 99.474C17.7306 99.5566 21.9851 97.6456 25.9368 94.4213ZM44.2092 75.5473C49.6617 69.6702 55.1364 63.8114 60.6335 57.9709C58.9558 56.2172 57.2834 54.4557 55.6162 52.6862C49.8282 58.8203 44.0677 64.9805 38.3347 71.167C40.1481 72.8107 42.1153 74.2762 44.2092 75.5434V75.5473ZM31.025 26.3689C27.7771 29.3494 24.714 32.5304 21.238 35.2514C17.8951 37.9447 14.0708 39.9783 9.96872 41.2439C10.7863 38.4093 11.9386 35.6822 13.4014 33.1202C11.6241 31.3613 9.83107 29.6154 8.02231 27.8827C4.659 33.2282 2.49013 39.2371 1.66413 45.4984L1.03501 50.268L5.79674 49.576C13.3974 48.4671 19.7045 45.6793 25.7285 40.9608C29.3892 38.114 32.5703 34.7835 35.9951 31.6889C34.3463 29.9116 32.6961 28.1383 31.0446 26.3689H31.025ZM32.7511 52.5919C30.3421 54.9904 27.9461 57.4021 25.5633 59.8269C27.5211 61.2771 29.3933 62.8394 31.1704 64.5061C33.3986 62.249 35.6347 59.9999 37.8786 57.7586C36.1917 56.0167 34.4734 54.3023 32.7669 52.5919H32.7511ZM18.0609 67.4079C17.2011 68.273 16.3387 69.1354 15.4736 69.9952C16.7442 72.0932 18.2081 74.0678 19.8461 75.8933C21.1568 74.5827 22.4674 73.272 23.7781 71.9613C21.9835 70.3017 20.0686 68.7771 18.0491 67.4001L18.0609 67.4079ZM10.1771 61.8755C14.2799 63.1395 18.1044 65.1732 21.4464 67.868C25.9408 71.3872 29.751 75.681 34.1549 79.3143C40.5052 84.5478 46.9381 87.3357 55.2347 87.7564L58.3804 87.9176L58.982 84.8192C59.7723 81.0368 59.7253 77.1273 58.8444 73.365C58.1599 70.6454 57.0858 68.039 55.6555 65.6267C53.9018 67.4984 52.1494 69.3727 50.3983 71.2496C51.7349 74.0162 52.3684 77.0699 52.2424 80.14C47.1307 79.3182 43.0257 77.1988 38.779 73.6953C34.3279 70.0267 30.5217 65.7211 25.929 62.1389C19.9011 57.4205 13.5941 54.6326 5.99728 53.5277L1.23554 52.8317L1.86073 57.6013C2.56202 62.8743 4.22254 67.9743 6.76013 72.6494C10.0157 78.5912 14.4277 83.8214 19.736 88.0317C21.702 86.5453 23.3967 84.7405 25.0836 82.9632C18.0688 77.5645 12.6032 70.4514 10.1417 61.8755H10.1771ZM49.313 57.0351C45.1175 52.2222 40.3912 47.6689 35.9047 43.1745C34.3318 41.6017 32.759 40.0145 31.1862 38.4128C29.4105 40.0794 27.5452 41.648 25.5987 43.1116C27.3131 44.8496 29.0288 46.5823 30.7458 48.3098C35.2834 52.8671 40.1159 57.4834 44.3115 62.3788C45.976 60.5963 47.6432 58.815 49.313 57.0351ZM23.8057 30.9458C18.3008 25.4409 12.5993 20.1483 7.06684 14.6749C5.16595 16.19 3.3615 17.8223 1.66413 19.5624C7.09826 24.9415 12.7133 30.124 18.112 35.5424C20.1156 34.1459 22.0182 32.6099 23.8057 30.9458ZM28.8427 94.0674C35.1353 97.4644 41.9304 99.8339 48.971 101.086C57.6301 102.598 66.4876 102.575 75.1389 101.019C87.7687 98.6601 100.096 92.6125 108.955 83.5058C107.196 81.8334 105.453 80.1452 103.725 78.4413C102.455 79.7547 101.109 80.9928 99.6947 82.1493C95.6736 85.4022 91.2123 88.0697 86.4436 90.0724C82.2206 91.865 77.8063 93.1685 73.2869 93.9573C65.4262 95.2861 57.3934 95.2276 49.5529 93.7843C44.2334 92.7584 39.0757 91.0233 34.2178 88.6254C32.468 90.4774 30.7261 92.3452 28.8466 94.0674H28.8427ZM96.0457 82.8924C90.4504 76.9668 84.9141 70.9586 79.3541 64.9897C77.7523 66.9042 76.3491 68.9766 75.1664 71.1749C80.0029 76.3731 84.8236 81.5949 89.6876 86.7577C91.8948 85.6196 94.0194 84.328 96.0457 82.8924ZM72.1151 57.2514C66.7046 51.4909 61.4985 45.5456 55.7027 40.1744C54.3533 42.2082 52.8799 44.1569 51.2909 46.0096C57.0278 51.3808 62.3007 57.4126 67.6798 63.1652C69.0324 61.1076 70.5138 59.1377 72.1151 57.2671V57.2514ZM71.4821 80.14C71.3617 76.7607 72.142 73.4101 73.743 70.4317C76.1023 65.8233 79.8574 61.7457 83.4002 58.0063C81.678 56.2959 79.9596 54.5815 78.2885 52.8396C76.5033 54.7191 74.7496 56.6301 73.1296 58.5883C69.4846 62.9568 66.2642 67.7618 64.9077 73.365C64.0267 77.1273 63.9797 81.0368 64.77 84.8192L65.3756 87.9176L68.5212 87.7564C74.0284 87.5592 79.3982 85.9842 84.1394 83.1756C82.4329 81.3406 80.729 79.5056 79.0277 77.6706C76.6658 78.8843 74.1251 79.7126 71.5017 80.1243L71.4821 80.14ZM97.5871 8.70203C93.5882 11.9657 90.1162 15.9724 86.6088 19.7354C88.6251 21.1049 90.5446 22.6118 92.3535 24.2455C94.0286 22.4604 95.7063 20.6791 97.3866 18.9018C99.1049 17.0931 101.319 14.7456 103.804 13.0824C107.343 10.7231 112.769 10.3299 116.367 12.7127C117.849 11.25 119.339 9.79514 120.896 8.40712C121.187 8.14761 121.486 7.89202 121.785 7.6207C118.514 5.15136 115.002 3.68863 110.909 3.63751C105.797 3.551 101.543 5.46593 97.5871 8.6863V8.70203ZM79.3187 27.576C73.861 33.4453 68.3849 39.3001 62.8905 45.1406C64.5682 46.8969 66.2419 48.6585 67.9118 50.4253C73.6998 44.2912 79.4589 38.131 85.1893 31.9445C84.7017 31.5172 84.2063 31.0939 83.703 30.6745C82.3264 29.5254 80.8603 28.4879 79.3187 27.5721V27.576ZM92.503 76.7663C95.7469 73.7858 98.7943 70.6047 102.286 67.8837C105.629 65.1917 109.453 63.1594 113.555 61.8952C112.823 64.4338 111.818 66.886 110.559 69.2088C110.417 69.4762 110.272 69.7357 110.123 69.9952C111.903 71.7568 113.696 73.5026 115.502 75.2328C118.866 69.8876 121.036 63.8786 121.864 57.6171L122.501 52.8317L117.739 53.5277C110.142 54.6326 103.835 57.4205 97.8073 62.1389C94.1466 65.0054 90.9655 68.3359 87.5603 71.4344C89.2118 73.209 90.8633 74.9811 92.5147 76.7505L92.503 76.7663ZM90.7728 50.5433C93.1845 48.1473 95.5805 45.7369 97.9607 43.3122C96.0044 41.8573 94.1323 40.2924 92.3535 38.6251C90.128 40.8795 87.8933 43.1274 85.6494 45.3686C87.3323 47.1145 89.0545 48.8249 90.7611 50.5354L90.7728 50.5433ZM105.463 35.7154C106.336 34.8503 107.2 33.9853 108.054 33.1202C106.781 31.0232 105.316 29.0487 103.678 27.2221C102.367 28.5328 101.057 29.8435 99.7458 31.1542C101.538 32.8123 103.448 34.3368 105.463 35.7154ZM113.351 41.2439C109.238 39.9831 105.404 37.9492 102.054 35.2514C97.5596 31.7125 93.7494 27.4384 89.3455 23.8091C83.0149 18.5715 76.578 15.7837 68.2814 15.363L65.1357 15.2057L64.5302 18.3002C63.7392 22.0827 63.7876 25.9926 64.6717 29.7544C65.3488 32.474 66.4177 35.0807 67.8449 37.4927C69.6039 35.621 71.3563 33.7467 73.1021 31.8698C71.7691 29.1019 71.1359 26.0491 71.2579 22.9794C76.3697 23.8051 80.4747 25.9206 84.7253 29.4241C89.1804 33.0927 93.0102 37.3983 97.5832 40.9844C103.627 45.7029 109.918 48.4868 117.515 49.5956L122.273 50.2877L121.648 45.5181C120.948 40.2454 119.288 35.1453 116.752 30.47C113.493 24.5306 109.082 19.3011 103.776 15.0877C101.81 16.574 100.119 18.3789 98.4325 20.1562C105.443 25.5549 110.909 32.668 113.374 41.2439H113.351ZM74.2149 46.0961C78.4065 50.9129 83.1328 55.4505 87.6193 59.9566C89.1921 61.5295 90.765 63.118 92.3378 64.7223C94.1109 63.0481 95.9749 61.4729 97.9214 60.0038C96.207 58.2659 94.4913 56.5331 92.7743 54.8056C88.2367 50.2483 83.4081 45.636 79.2125 40.7367L74.2149 46.0961ZM99.7262 72.1893C104.032 76.5146 108.377 80.7966 112.836 84.9411C114.066 86.0853 115.27 87.2688 116.469 88.4563C118.37 86.9423 120.173 85.3099 121.868 83.5688C120.523 82.2358 119.174 80.8949 117.79 79.6092C113.587 75.7007 109.482 71.6664 105.42 67.5927C103.414 68.9868 101.512 70.5229 99.7262 72.1893ZM94.6853 9.05592C87.5577 5.20193 79.791 2.67076 71.7613 1.58497C65.0564 0.694344 58.2632 0.694344 51.5583 1.58497C37.8432 3.43698 24.1753 9.73616 14.5614 19.6017C16.3229 21.2716 18.0675 22.9597 19.7949 24.6663C21.7107 22.6597 23.8178 20.8449 26.0863 19.2479C29.1856 17.0613 32.4756 15.1583 35.9165 13.5621C41.1446 11.209 46.6817 9.6135 52.3604 8.82392C58.7352 7.96861 65.1975 7.99641 71.5647 8.90649C77.7433 9.83553 83.7402 11.7178 89.3416 14.4861C91.0913 12.6302 92.8333 10.7664 94.7167 9.04411L94.6853 9.05592Z" fill="#FFFFFF"/>
</svg>
